<svg xmlns="http://www.w3.org/2000/svg" viewBox="0 8.84000015258789 155.58999633789062 37.029998779296875" data-asc="0.9052734375" width="155.58999633789062" height="37.029998779296875"><defs/><g><g fill="#000000"><g transform="translate(0, 0)"><path d="M0 45.26L0 9.47L25.88 9.47L25.88 13.70L4.74 13.70L4.74 24.66L24.54 24.66L24.54 28.86L4.74 28.86L4.74 41.04L26.71 41.04L26.71 45.26L0 45.26ZM58.79 32.71L63.53 33.91Q62.04 39.75 58.17 42.81Q54.30 45.87 48.71 45.87Q42.92 45.87 39.29 43.52Q35.67 41.16 33.78 36.69Q31.88 32.23 31.88 27.10Q31.88 21.51 34.02 17.35Q36.16 13.18 40.10 11.02Q44.04 8.86 48.78 8.86Q54.15 8.86 57.81 11.60Q61.47 14.33 62.92 19.29L58.25 20.39Q57.01 16.48 54.64 14.70Q52.27 12.92 48.68 12.92Q44.56 12.92 41.78 14.89Q39.01 16.87 37.89 20.20Q36.77 23.54 36.77 27.08Q36.77 31.64 38.10 35.05Q39.43 38.45 42.24 40.14Q45.04 41.82 48.32 41.82Q52.29 41.82 55.05 39.53Q57.81 37.23 58.79 32.71ZM67.92 27.83Q67.92 18.92 72.71 13.88Q77.49 8.84 85.06 8.84Q90.01 8.84 93.99 11.21Q97.97 13.57 100.06 17.81Q102.15 22.05 102.15 27.42Q102.15 32.86 99.95 37.16Q97.75 41.46 93.73 43.66Q89.70 45.87 85.03 45.87Q79.98 45.87 76.00 43.43Q72.02 40.99 69.97 36.77Q67.92 32.54 67.92 27.83M72.80 27.91Q72.80 34.38 76.28 38.10Q79.76 41.82 85.01 41.82Q90.36 41.82 93.81 38.06Q97.27 34.30 97.27 27.39Q97.27 23.02 95.79 19.76Q94.31 16.50 91.47 14.71Q88.62 12.92 85.08 12.92Q80.05 12.92 76.43 16.37Q72.80 19.82 72.80 27.91ZM108.11 45.26L108.11 9.47L115.23 9.47L123.71 34.81Q124.88 38.35 125.42 40.11Q126.03 38.16 127.32 34.38L135.89 9.47L142.26 9.47L142.26 45.26L137.70 45.26L137.70 15.31L127.29 45.26L123.02 45.26L112.67 14.79L112.67 45.26L108.11 45.26ZM150.59 45.26L150.59 40.26L155.59 40.26L155.59 45.26L150.59 45.26Z"/></g></g></g></svg>